# xmcd CD database file
#
# Track frame offsets:
#	150
#	28330
#	47067
#	64005
#	86474
#	108737
#	123920
#	147187
#	160756
#	180724
#	200767
#
# Disc length: 3023 seconds
#
# Revision: 0
# Processed by: cddbd v1.5.2PL0 Copyright (c) Steve Scherf et al.
# Submitted via: CDex 1.70beta2
#
DISCID=9b0bcd0b
DTITLE=Theodis Ealey - Stand Up In It
DYEAR=2004
DGENRE=Blues
TTITLE0=Stand Up In It
TTITLE1=If You Keep Rockin
TTITLE2=Move With The Motion
TTITLE3=Lil' Brown Eyes
TTITLE4=Don't You Wanna Party
TTITLE5=Bluesman Lover
TTITLE6=If You Leave Me, I.m Going Wit'Cha
TTITLE7=Baby,You,ve Got What It Takes
TTITLE8=I Wabt You
TTITLE9=All My Baby Left Me Was A Note,My Guitar And A Cookie Jar
TTITLE10=You,ve Got To Hurt Before Yoe Heal
EXTD=YEAR: 2004
EXTT0=
EXTT1=
EXTT2=
EXTT3=
EXTT4=
EXTT5=
EXTT6=
EXTT7=
EXTT8=
EXTT9=
EXTT10=
PLAYORDER=
